<?xml version="1.0" encoding="UTF-8"?>
<svg class="svg-icon" version="1.1" viewBox="0 0 1024 1024" xmlns="http://www.w3.org/2000/svg">
<path d="m512 0c-282.62 0-512 229.38-512 512s229.38 512 512 512 512-229.38 512-512-229.38-512-512-512zm62.464 774.14c0 27.648-22.528 50.176-50.176 50.176h-25.088c-27.648 0-50.176-22.528-50.176-50.176v-299.52c0-27.648 22.528-50.176 50.176-50.176h25.088c27.648 0 50.176 22.528 50.176 50.176v299.52zm-62.464-424.45c-34.304 0-62.464-28.16-62.464-62.464s28.16-62.464 62.464-62.464 62.464 28.16 62.464 62.464-28.16 62.464-62.464 62.464z"/>
</svg>
