<?xml version="1.0" encoding="UTF-8"?>
<svg class="svg-icon" version="1.1" viewBox="0 0 1024 1024" xmlns="http://www.w3.org/2000/svg">
<path d="m810.66 170.66q18.33 0 30.495 12.165t12.165 30.495q0 18.002-12.329 30.331l-268.68 268.33 268.68 268.33q12.329 12.329 12.329 30.331 0 18.33-12.165 30.495t-30.495 12.165q-18.002 0-30.331-12.329l-268.33-268.68-268.33 268.68q-12.329 12.329-30.331 12.329-18.33 0-30.495-12.165t-12.165-30.495q0-18.002 12.329-30.331l268.68-268.33-268.68-268.33q-12.329-12.329-12.329-30.331 0-18.33 12.165-30.495t30.495-12.165q18.002 0 30.331 12.329l268.33 268.68 268.33-268.68q12.329-12.329 30.331-12.329z"/>
</svg>