<?xml version="1.0" encoding="UTF-8"?>
<svg class="svg-icon" version="1.1" viewBox="0 0 1024 1024" xmlns="http://www.w3.org/2000/svg">
<path d="m938.97 1024h-298.21v-340.35h-255.8v339.82h-299.28v-13.07c0-176.58 0-352.89 0.267-529.47 0-5.8679 3.467-13.87 8.0019-17.604 138.43-111.23 277.14-222.19 416.1-333.15 0.534-0.533 1.6-0.79999 3.201-1.333 45.345 36.276 91.223 72.818 136.83 109.36 91.489 73.352 182.98 146.7 275 219.52 10.402 8.2689 14.403 16.538 14.403 29.875-0.533 173.91-0.266 347.55-0.266 521.46-0.267 4.801-0.267 9.8689-0.267 14.937z"/>
<path d="m85.421 85.888h169.91v119.5c87.222-69.617 171.51-137.1 256.86-205.38 22.94 18.405 46.145 36.81 69.35 55.213 144.57 115.76 289.14 231.52 433.98 347.02 6.6689 5.3349 9.6029 10.136 9.3359 18.672-0.79999 13.603-0.267 27.207-0.267 44.011-172.31-137.63-341.95-273.4-512.39-409.7-170.18 136.3-340.09 272.07-512.13 409.7 0-19.205-0.267-35.476 0.266-51.479 0-3.2 3.735-6.6679 6.4019-9.0689 22.673-18.405 45.612-36.81 68.817-54.679 7.4689-5.8699 10.136-12.004 9.8699-21.34v-242.46z"/>
</svg>
