<?xml version="1.0" encoding="UTF-8"?>
<svg class="svg-icon" version="1.1" viewBox="0 0 1024 1024" xmlns="http://www.w3.org/2000/svg">
<path d="m1021.6 836.51-319.23-355.58 318.67-295.88c1.4848 4.3008 2.8672 8.6528 2.8672 13.312v627.25c0 3.8912-1.3312 7.3216-2.304 10.906zm-982.43-681.32c2.9184-0.512 5.4784-1.6384 8.3968-1.6384h928.97c2.9184 0 5.5296 1.1264 8.3968 1.6384l-472.88 417.23-472.88-417.23zm-36.71 681.37c-0.9216-3.584-2.3552-7.0144-2.3552-10.957v-627.25c0-4.7616 1.4848-9.0624 2.9184-13.363l318.82 295.94-319.39 355.64zm494.39-217.75c4.4032 3.5328 9.8304 5.2224 15.206 5.2224 5.4272 0 10.752-1.6896 15.104-5.2224l138.6-109.06 322.36 358.45c-3.7888 0.9216-7.4752 2.2528-11.571 2.2528h-928.97c-4.0448 0-7.7312-1.3312-11.469-2.2528l322.3-358.45 138.44 109.06z"/>
</svg>
